# xmcd
#
# Track frame offsets: 
#        150
#        14322
#        29830
#        47605
#        61550
#        76852
#        93477
#        110542
#        128765
#        147395
#        169832
#        186025
#
# Disc length: 2688 seconds
#
# Revision: 0
# Processed by: cddbd v1.5.2PL0 Copyright (c) Steve Scherf et al.
# Submitted via: ExactAudioCopy v0.90b4
#
DISCID=990a7e0c
DTITLE=Nashville Superpickers - Pickin' on SHeryl Crow
DYEAR=2008
DGENRE=Bluegrass
TTITLE0=My Favorite Mistake
TTITLE1=Anything But Down
TTITLE2=Sweet Rosalyn
TTITLE3=Strong Enough
TTITLE4=It Don't Hurt
TTITLE5=All I Wanna Do
TTITLE6=Riverwide
TTITLE7=If It Makes You Happy
TTITLE8=Redemption Day
TTITLE9=Home
TTITLE10=Solidify
TTITLE11=Everyday Is A Winding Road
EXTD=
EXTT0=
EXTT1=
EXTT2=
EXTT3=
EXTT4=
EXTT5=
EXTT6=
EXTT7=
EXTT8=
EXTT9=
EXTT10=
EXTT11=
PLAYORDER=
